<mxfile host="app.diagrams.net" modified="2020-11-12T09:46:39.072Z" agent="5.0 (Windows NT 10.0; Win64; x64) AppleWebKit/537.36 (KHTML, like Gecko) Chrome/86.0.4240.193 Safari/537.36" etag="mHbXR8A3FdT7IxMFuAWD" version="13.9.7" type="github" pages="2">
  <diagram id="AG0kQzNRQeQoc2iCLjP1" name="Home_page">
    <mxGraphModel dx="1422" dy="1894" grid="1" gridSize="10" guides="1" tooltips="1" connect="1" arrows="1" fold="1" page="1" pageScale="1" pageWidth="850" pageHeight="1100" math="0" shadow="0">
      <root>
        <mxCell id="0" />
        <mxCell id="1" parent="0" />
        <mxCell id="NGtG3SCU5Q8hICN-BRFl-3" value="" style="rounded=0;whiteSpace=wrap;html=1;fillColor=#d5e8d4;strokeColor=#82b366;" vertex="1" parent="1">
          <mxGeometry y="-1100" width="850" height="60" as="geometry" />
        </mxCell>
        <mxCell id="NGtG3SCU5Q8hICN-BRFl-4" value="" style="shape=image;html=1;verticalAlign=top;verticalLabelPosition=bottom;labelBackgroundColor=#ffffff;imageAspect=0;aspect=fixed;image=https://cdn0.iconfinder.com/data/icons/navigation-set-arrows-part-one/32/Menu1-128.png" vertex="1" parent="1">
          <mxGeometry x="10" y="-1099" width="58" height="58" as="geometry" />
        </mxCell>
        <mxCell id="NGtG3SCU5Q8hICN-BRFl-5" value="" style="pointerEvents=1;shadow=0;dashed=0;html=1;strokeColor=none;fillColor=#505050;labelPosition=center;verticalLabelPosition=bottom;verticalAlign=top;outlineConnect=0;align=center;shape=mxgraph.office.concepts.search;" vertex="1" parent="1">
          <mxGeometry x="730" y="-1087.5" width="35" height="35" as="geometry" />
        </mxCell>
        <mxCell id="NGtG3SCU5Q8hICN-BRFl-6" value="Ads" style="rounded=0;whiteSpace=wrap;html=1;fillColor=none;" vertex="1" parent="1">
          <mxGeometry y="-1040" width="850" height="80" as="geometry" />
        </mxCell>
        <mxCell id="NGtG3SCU5Q8hICN-BRFl-7" value="News (IPO) etc" style="rounded=0;whiteSpace=wrap;html=1;fillColor=none;" vertex="1" parent="1">
          <mxGeometry y="-960" width="440" height="320" as="geometry" />
        </mxCell>
        <mxCell id="NGtG3SCU5Q8hICN-BRFl-8" value="Positive news" style="rounded=0;whiteSpace=wrap;html=1;fillColor=none;" vertex="1" parent="1">
          <mxGeometry x="440" y="-960" width="410" height="150" as="geometry" />
        </mxCell>
        <mxCell id="NGtG3SCU5Q8hICN-BRFl-9" value="Negative news" style="rounded=0;whiteSpace=wrap;html=1;fillColor=none;" vertex="1" parent="1">
          <mxGeometry x="440" y="-810" width="410" height="170" as="geometry" />
        </mxCell>
        <mxCell id="NGtG3SCU5Q8hICN-BRFl-11" value="Find your favorite stock&#39;s online sentiment analysis" style="rounded=0;whiteSpace=wrap;html=1;fillColor=none;" vertex="1" parent="1">
          <mxGeometry y="-640" width="850" height="180" as="geometry" />
        </mxCell>
        <mxCell id="NGtG3SCU5Q8hICN-BRFl-14" value="" style="rounded=0;whiteSpace=wrap;html=1;fillColor=none;" vertex="1" parent="1">
          <mxGeometry y="-460" width="850" height="370" as="geometry" />
        </mxCell>
        <mxCell id="NGtG3SCU5Q8hICN-BRFl-15" value="Pie chart of source of data" style="ellipse;whiteSpace=wrap;html=1;aspect=fixed;fillColor=none;" vertex="1" parent="1">
          <mxGeometry x="705" y="-435" width="130" height="130" as="geometry" />
        </mxCell>
        <mxCell id="NGtG3SCU5Q8hICN-BRFl-16" value="Graph of stock&#39;s sentiment analysis overtime" style="rounded=0;whiteSpace=wrap;html=1;fillColor=none;" vertex="1" parent="1">
          <mxGeometry y="-460" width="450" height="180" as="geometry" />
        </mxCell>
        <mxCell id="NGtG3SCU5Q8hICN-BRFl-17" value="Graph of stock&#39;s price overtime" style="rounded=0;whiteSpace=wrap;html=1;fillColor=none;" vertex="1" parent="1">
          <mxGeometry y="-280" width="450" height="190" as="geometry" />
        </mxCell>
        <mxCell id="NGtG3SCU5Q8hICN-BRFl-18" value="Column chart of reliability of sentiment against stock" style="rounded=0;whiteSpace=wrap;html=1;fillColor=none;" vertex="1" parent="1">
          <mxGeometry x="690" y="-300" width="160" height="210" as="geometry" />
        </mxCell>
        <mxCell id="NGtG3SCU5Q8hICN-BRFl-19" value="Stock price prediction&amp;nbsp;" style="rounded=0;whiteSpace=wrap;html=1;fillColor=none;" vertex="1" parent="1">
          <mxGeometry x="450" y="-460" width="240" height="370" as="geometry" />
        </mxCell>
        <mxCell id="NGtG3SCU5Q8hICN-BRFl-20" value="Footer - about, disclaimer" style="rounded=0;whiteSpace=wrap;html=1;fillColor=none;" vertex="1" parent="1">
          <mxGeometry y="-90" width="850" height="90" as="geometry" />
        </mxCell>
      </root>
    </mxGraphModel>
  </diagram>
  <diagram id="z5Sch0qcNA9kYxN3pnz-" name="Backend">
    <mxGraphModel dx="1422" dy="794" grid="1" gridSize="10" guides="1" tooltips="1" connect="1" arrows="1" fold="1" page="1" pageScale="1" pageWidth="850" pageHeight="1100" math="0" shadow="0">
      <root>
        <mxCell id="ExMv3PKS4G4o2DIuhnAN-0" />
        <mxCell id="ExMv3PKS4G4o2DIuhnAN-1" parent="ExMv3PKS4G4o2DIuhnAN-0" />
        <mxCell id="gAiJz19P4XP56iRevwtF-1" style="edgeStyle=orthogonalEdgeStyle;rounded=0;orthogonalLoop=1;jettySize=auto;html=1;entryX=0;entryY=0.5;entryDx=0;entryDy=0;" edge="1" parent="ExMv3PKS4G4o2DIuhnAN-1" source="gAiJz19P4XP56iRevwtF-0" target="gAiJz19P4XP56iRevwtF-2">
          <mxGeometry relative="1" as="geometry">
            <mxPoint x="260" y="160" as="targetPoint" />
            <Array as="points">
              <mxPoint x="370" y="160" />
            </Array>
          </mxGeometry>
        </mxCell>
        <mxCell id="gAiJz19P4XP56iRevwtF-3" value="Send stock code" style="edgeLabel;html=1;align=center;verticalAlign=middle;resizable=0;points=[];" vertex="1" connectable="0" parent="gAiJz19P4XP56iRevwtF-1">
          <mxGeometry x="-0.3429" y="1" relative="1" as="geometry">
            <mxPoint as="offset" />
          </mxGeometry>
        </mxCell>
        <mxCell id="gAiJz19P4XP56iRevwtF-0" value="Client frontend" style="rounded=0;whiteSpace=wrap;html=1;fillColor=none;" vertex="1" parent="ExMv3PKS4G4o2DIuhnAN-1">
          <mxGeometry x="10" y="130" width="110" height="60" as="geometry" />
        </mxCell>
        <mxCell id="gAiJz19P4XP56iRevwtF-5" style="edgeStyle=orthogonalEdgeStyle;rounded=0;orthogonalLoop=1;jettySize=auto;html=1;" edge="1" parent="ExMv3PKS4G4o2DIuhnAN-1" source="gAiJz19P4XP56iRevwtF-2" target="gAiJz19P4XP56iRevwtF-6">
          <mxGeometry relative="1" as="geometry">
            <mxPoint x="600" y="160" as="targetPoint" />
          </mxGeometry>
        </mxCell>
        <mxCell id="gAiJz19P4XP56iRevwtF-14" style="edgeStyle=orthogonalEdgeStyle;rounded=0;orthogonalLoop=1;jettySize=auto;html=1;" edge="1" parent="ExMv3PKS4G4o2DIuhnAN-1" source="gAiJz19P4XP56iRevwtF-2">
          <mxGeometry relative="1" as="geometry">
            <mxPoint x="450" y="320" as="targetPoint" />
          </mxGeometry>
        </mxCell>
        <mxCell id="gAiJz19P4XP56iRevwtF-2" value="server" style="rounded=0;whiteSpace=wrap;html=1;fillColor=none;" vertex="1" parent="ExMv3PKS4G4o2DIuhnAN-1">
          <mxGeometry x="390" y="130" width="120" height="60" as="geometry" />
        </mxCell>
        <mxCell id="gAiJz19P4XP56iRevwtF-7" style="edgeStyle=orthogonalEdgeStyle;rounded=0;orthogonalLoop=1;jettySize=auto;html=1;entryX=0.5;entryY=0;entryDx=0;entryDy=0;" edge="1" parent="ExMv3PKS4G4o2DIuhnAN-1" source="gAiJz19P4XP56iRevwtF-6" target="gAiJz19P4XP56iRevwtF-9">
          <mxGeometry relative="1" as="geometry">
            <mxPoint x="660" y="310" as="targetPoint" />
          </mxGeometry>
        </mxCell>
        <mxCell id="gAiJz19P4XP56iRevwtF-8" value="Pass scraped data to sentiment analysis" style="edgeLabel;html=1;align=center;verticalAlign=middle;resizable=0;points=[];" vertex="1" connectable="0" parent="gAiJz19P4XP56iRevwtF-7">
          <mxGeometry x="-0.3333" relative="1" as="geometry">
            <mxPoint as="offset" />
          </mxGeometry>
        </mxCell>
        <mxCell id="gAiJz19P4XP56iRevwtF-6" value="Scraper" style="rounded=0;whiteSpace=wrap;html=1;" vertex="1" parent="ExMv3PKS4G4o2DIuhnAN-1">
          <mxGeometry x="600" y="130" width="120" height="60" as="geometry" />
        </mxCell>
        <mxCell id="gAiJz19P4XP56iRevwtF-10" style="edgeStyle=orthogonalEdgeStyle;rounded=0;orthogonalLoop=1;jettySize=auto;html=1;entryX=0.5;entryY=1;entryDx=0;entryDy=0;exitX=0;exitY=0.5;exitDx=0;exitDy=0;" edge="1" parent="ExMv3PKS4G4o2DIuhnAN-1" source="gAiJz19P4XP56iRevwtF-15" target="gAiJz19P4XP56iRevwtF-0">
          <mxGeometry relative="1" as="geometry">
            <mxPoint x="150" y="430" as="sourcePoint" />
          </mxGeometry>
        </mxCell>
        <mxCell id="gAiJz19P4XP56iRevwtF-17" value="Return prediction &amp;amp; sentiment results for display" style="edgeLabel;html=1;align=center;verticalAlign=middle;resizable=0;points=[];" vertex="1" connectable="0" parent="gAiJz19P4XP56iRevwtF-10">
          <mxGeometry x="-0.4722" y="-1" relative="1" as="geometry">
            <mxPoint as="offset" />
          </mxGeometry>
        </mxCell>
        <mxCell id="gAiJz19P4XP56iRevwtF-16" style="edgeStyle=orthogonalEdgeStyle;rounded=0;orthogonalLoop=1;jettySize=auto;html=1;entryX=1;entryY=0.5;entryDx=0;entryDy=0;" edge="1" parent="ExMv3PKS4G4o2DIuhnAN-1" source="gAiJz19P4XP56iRevwtF-9" target="gAiJz19P4XP56iRevwtF-15">
          <mxGeometry relative="1" as="geometry" />
        </mxCell>
        <mxCell id="gAiJz19P4XP56iRevwtF-9" value="Sentiment analysis" style="rounded=0;whiteSpace=wrap;html=1;fillColor=none;" vertex="1" parent="ExMv3PKS4G4o2DIuhnAN-1">
          <mxGeometry x="600" y="320" width="120" height="60" as="geometry" />
        </mxCell>
        <mxCell id="gAiJz19P4XP56iRevwtF-12" value="Interaction between components" style="text;html=1;strokeColor=none;fillColor=none;align=center;verticalAlign=middle;whiteSpace=wrap;rounded=0;" vertex="1" parent="ExMv3PKS4G4o2DIuhnAN-1">
          <mxGeometry x="260" y="90" width="230" height="20" as="geometry" />
        </mxCell>
        <mxCell id="gAiJz19P4XP56iRevwtF-15" value="Prediction model" style="rounded=0;whiteSpace=wrap;html=1;fillColor=none;" vertex="1" parent="ExMv3PKS4G4o2DIuhnAN-1">
          <mxGeometry x="390" y="320" width="120" height="60" as="geometry" />
        </mxCell>
        <mxCell id="gAiJz19P4XP56iRevwtF-18" value="Server" style="text;html=1;strokeColor=none;fillColor=none;align=center;verticalAlign=middle;whiteSpace=wrap;rounded=0;" vertex="1" parent="ExMv3PKS4G4o2DIuhnAN-1">
          <mxGeometry x="380" y="480" width="40" height="20" as="geometry" />
        </mxCell>
        <mxCell id="gAiJz19P4XP56iRevwtF-20" value="Flask with gunicorn and&amp;nbsp;Nginx&amp;nbsp;" style="text;html=1;strokeColor=none;fillColor=none;align=center;verticalAlign=middle;whiteSpace=wrap;rounded=0;" vertex="1" parent="ExMv3PKS4G4o2DIuhnAN-1">
          <mxGeometry x="310" y="510" width="200" height="20" as="geometry" />
        </mxCell>
        <mxCell id="gAiJz19P4XP56iRevwtF-21" value="Scraper" style="text;html=1;strokeColor=none;fillColor=none;align=center;verticalAlign=middle;whiteSpace=wrap;rounded=0;" vertex="1" parent="ExMv3PKS4G4o2DIuhnAN-1">
          <mxGeometry x="380" y="560" width="40" height="20" as="geometry" />
        </mxCell>
        <mxCell id="gAiJz19P4XP56iRevwtF-22" value="selenium with firefox + profile&lt;br&gt;data source:&amp;nbsp;&lt;br&gt;Google new&amp;nbsp;&amp;nbsp;&lt;br&gt;Duckduckgo" style="text;html=1;strokeColor=none;fillColor=none;align=center;verticalAlign=middle;whiteSpace=wrap;rounded=0;" vertex="1" parent="ExMv3PKS4G4o2DIuhnAN-1">
          <mxGeometry x="295" y="590" width="210" height="80" as="geometry" />
        </mxCell>
        <mxCell id="gAiJz19P4XP56iRevwtF-23" value="Prediction model" style="text;html=1;strokeColor=none;fillColor=none;align=center;verticalAlign=middle;whiteSpace=wrap;rounded=0;" vertex="1" parent="ExMv3PKS4G4o2DIuhnAN-1">
          <mxGeometry x="300" y="700" width="200" height="20" as="geometry" />
        </mxCell>
        <mxCell id="gAiJz19P4XP56iRevwtF-24" value="Sentiment analysis" style="text;html=1;strokeColor=none;fillColor=none;align=center;verticalAlign=middle;whiteSpace=wrap;rounded=0;" vertex="1" parent="ExMv3PKS4G4o2DIuhnAN-1">
          <mxGeometry x="305" y="830" width="200" height="20" as="geometry" />
        </mxCell>
      </root>
    </mxGraphModel>
  </diagram>
</mxfile>
